# xmcd CD database file
#
# Track frame offsets:
#	150
#	10920
#	17276
#	27170
#	29941
#	35808
#	42199
#	48305
#	55909
#	68456
#	77443
#	93480
#	112453
#	114078
#	119956
#	134924
#	139398
#	155864
#	162488
#	178741
#	187361
#	192148
#	206187
#	212334
#	220581
#	232938
#	238317
#	246219
#
# Disc length: 3617 seconds
#
# Revision: 3
# Processed by: cddbd v1.5.2PL0 Copyright (c) Steve Scherf et al.
# Submitted via: CDex 1.51
#
DISCID=a80e1f1c
DTITLE=200 ans de Musique à Versailles - Vol.05 - Concerts et symphonies pour le Roi
DYEAR=2007
DGENRE=Baroque
TTITLE0=François Couperin - Premier Concert royal - Prélude
TTITLE1=François Couperin - Premier Concert royal - Allemande
TTITLE2=François Couperin - Premier Concert royal - Sarabande
TTITLE3=François Couperin - Premier Concert royal - Gavotte
TTITLE4=François Couperin - Premier Concert royal - Gigue
TTITLE5=François Couperin - Premier Concert royal - Menuet
TTITLE6=François Couperin - Deuxième Concert royal - Prélude
TTITLE7=François Couperin - Deuxième Concert royal - Allemande fuguée
TTITLE8=François Couperin - Deuxième Concert royal - Air tendre
TTITLE9=François Couperin - Deuxième Concert royal - Air contre-fugué
TTITLE10=François Couperin - Deuxième Concert royal - Échos
TTITLE11=Michel-Richard De Lalande - Symphonies pour les Soupers du Roi - Ouverture
TTITLE12=Michel-Richard De Lalande - Symphonies pour les Soupers du Roi - Prélude
TTITLE13=Michel-Richard De Lalande - Symphonies pour les Soupers du Roi - Marche des Candiots
TTITLE14=Michel-Richard De Lalande - Symphonies pour les Soupers du Roi - Air des Candiots
TTITLE15=Michel-Richard De Lalande - Symphonies pour les Soupers du Roi - Air des Combattants
TTITLE16=Michel-Richard De Lalande - Symphonies pour les Soupers du Roi - Chaconne
TTITLE17=Michel-Richard De Lalande - Symphonies pour les Soupers du Roi - Air d'Ancelade
TTITLE18=Jean-Baptiste De Lully Fils - Concert donné au souper du Roi - Ouverture
TTITLE19=Jean-Baptiste De Lully Fils - Concert donné au souper du Roi - Sarabande
TTITLE20=Jean-Baptiste De Lully Fils - Concert donné au souper du Roi - Bourrée
TTITLE21=Jean-Baptiste De Lully Fils - Concert donné au souper du Roi - Quatrième Air en suite
TTITLE22=Jean-Baptiste De Lully Fils - Concert donné au souper du Roi - Loure
TTITLE23=Jean-Baptiste De Lully Fils - Concert donné au souper du Roi - Premier et Deuxième Rigaudon
TTITLE24=Jean-Baptiste De Lully Fils - Concert donné au souper du Roi - Grand Air en suite
TTITLE25=Jean-Baptiste De Lully Fils - Concert donné au souper du Roi - Rondeau en suite
TTITLE26=Jean-Baptiste De Lully Fils - Concert donné au souper du Roi - Grand Air en fanfare
TTITLE27=Jean-Baptiste De Lully Fils - Concert donné au souper du Roi - Passacaille
EXTD=YEAR: 2007
EXTT0=
EXTT1=
EXTT2=
EXTT3=
EXTT4=
EXTT5=
EXTT6=
EXTT7=
EXTT8=
EXTT9=
EXTT10=
EXTT11=
EXTT12=
EXTT13=
EXTT14=
EXTT15=
EXTT16=
EXTT17=
EXTT18=
EXTT19=
EXTT20=
EXTT21=
EXTT22=
EXTT23=
EXTT24=
EXTT25=
EXTT26=
EXTT27=
PLAYORDER=
